<svg xmlns="http://www.w3.org/2000/svg" viewBox="0 0 2884 72" width="2884" height="72"><path d="M72.3 16v30.1h-7.1V17.5l7.1-1.5zM51.9 48.9c2 0 3.6 1.6 3.6 3.5 0 2-1.6 3.5-3.6 3.5s-3.6-1.6-3.6-3.5c.1-1.9 1.7-3.5 3.6-3.5zm0-24.4c6.1 0 11 4.9 11 10.9s-4.9 10.9-11 10.9-11-4.9-11-10.9 5-10.9 11-10.9zm0 14.5c2 0 3.6-1.6 3.6-3.5 0-2-1.6-3.5-3.6-3.5s-3.6 1.6-3.6 3.5c.1 1.9 1.7 3.5 3.6 3.5zm-22.4 0c1.2 0 2.2-1 2.2-2.2 0-1.2-1-2.2-2.2-2.2h-5.4V39h5.4zm-5.4-15.9v4.4h4c1.2 0 2.2-1 2.2-2.2 0-1.2-1-2.2-2.2-2.2h-4zm12 7.1c1.7 1.7 2.8 4 2.8 6.6 0 5.1-4.2 9.3-9.4 9.3H17V16h11.1c5.2 0 9.4 4.2 9.4 9.3 0 1.8-.5 3.5-1.4 4.9zM85.7 32h-3.6v5.6c0 1.7.5 2.9 2 2.9.9 0 1.6-.2 1.6-.2v5.2s-1.5.9-3.5.9h-.6c-4-.2-6.7-2.7-6.7-7V21l7.1-1.5v5.4h3.6V32z" fill="#34d186" fill-rule="evenodd"/><path d="M175.3 16v30.1h-7.1V17.5l7.1-1.5zm-20.4 32.9c2 0 3.6 1.6 3.6 3.5 0 2-1.6 3.5-3.6 3.5s-3.6-1.6-3.6-3.5c.1-1.9 1.7-3.5 3.6-3.5zm0-24.4c6.1 0 11 4.9 11 10.9s-4.9 10.9-11 10.9-11-4.9-11-10.9 5-10.9 11-10.9zm0 14.5c2 0 3.6-1.6 3.6-3.5 0-2-1.6-3.5-3.6-3.5s-3.6 1.6-3.6 3.5c.1 1.9 1.7 3.5 3.6 3.5zm-22.4 0c1.2 0 2.2-1 2.2-2.2 0-1.2-1-2.2-2.2-2.2h-5.4V39h5.4zm-5.4-15.9v4.4h4c1.2 0 2.2-1 2.2-2.2 0-1.2-1-2.2-2.2-2.2h-4zm12 7.1c1.7 1.7 2.8 4 2.8 6.6 0 5.1-4.2 9.3-9.4 9.3H120V16h11.1c5.2 0 9.4 4.2 9.4 9.3 0 1.8-.5 3.5-1.4 4.9zm49.6 1.8h-3.6v5.6c0 1.7.5 2.9 2 2.9.9 0 1.6-.2 1.6-.2v5.2s-1.5.9-3.5.9h-.6c-4-.2-6.7-2.7-6.7-7V21l7.1-1.5v5.4h3.6V32z" fill="#32ca82" fill-rule="evenodd"/><path d="M278.3 16v30.1h-7.1V17.5l7.1-1.5zm-20.4 32.9c2 0 3.6 1.6 3.6 3.5 0 2-1.6 3.5-3.6 3.5s-3.6-1.6-3.6-3.5c.1-1.9 1.7-3.5 3.6-3.5zm0-24.4c6.1 0 11 4.9 11 10.9s-4.9 10.9-11 10.9-11-4.9-11-10.9 5-10.9 11-10.9zm0 14.5c2 0 3.6-1.6 3.6-3.5 0-2-1.6-3.5-3.6-3.5s-3.6 1.6-3.6 3.5c.1 1.9 1.7 3.5 3.6 3.5zm-22.4 0c1.2 0 2.2-1 2.2-2.2 0-1.2-1-2.2-2.2-2.2h-5.4V39h5.4zm-5.4-15.9v4.4h4c1.2 0 2.2-1 2.2-2.2 0-1.2-1-2.2-2.2-2.2h-4zm12 7.1c1.7 1.7 2.8 4 2.8 6.6 0 5.1-4.2 9.3-9.4 9.3H223V16h11.1c5.2 0 9.4 4.2 9.4 9.3 0 1.8-.5 3.5-1.4 4.9zm49.6 1.8h-3.6v5.6c0 1.7.5 2.9 2 2.9.9 0 1.6-.2 1.6-.2v5.2s-1.5.9-3.5.9h-.6c-4-.2-6.7-2.7-6.7-7V21l7.1-1.5v5.4h3.6V32z" fill="#2bac6f" fill-rule="evenodd"/><path d="M381.3 16v30.1h-7.1V17.5l7.1-1.5zm-20.4 32.9c2 0 3.6 1.6 3.6 3.5 0 2-1.6 3.5-3.6 3.5s-3.6-1.6-3.6-3.5c.1-1.9 1.7-3.5 3.6-3.5zm0-24.4c6.1 0 11 4.9 11 10.9s-4.9 10.9-11 10.9-11-4.9-11-10.9 5-10.9 11-10.9zm0 14.5c2 0 3.6-1.6 3.6-3.5 0-2-1.6-3.5-3.6-3.5s-3.6 1.6-3.6 3.5c.1 1.9 1.7 3.5 3.6 3.5zm-22.4 0c1.2 0 2.2-1 2.2-2.2 0-1.2-1-2.2-2.2-2.2h-5.4V39h5.4zm-5.4-15.9v4.4h4c1.2 0 2.2-1 2.2-2.2 0-1.2-1-2.2-2.2-2.2h-4zm12 7.1c1.7 1.7 2.8 4 2.8 6.6 0 5.1-4.2 9.3-9.4 9.3H326V16h11.1c5.2 0 9.4 4.2 9.4 9.3 0 1.8-.5 3.5-1.4 4.9zm49.6 1.8h-3.6v5.6c0 1.7.5 2.9 2 2.9.9 0 1.6-.2 1.6-.2v5.2s-1.5.9-3.5.9h-.6c-4-.2-6.7-2.7-6.7-7V21l7.1-1.5v5.4h3.6V32z" fill="#1c7149" fill-rule="evenodd"/><path d="M484.3 16v30.1h-7.1V17.5l7.1-1.5zm-20.4 32.9c2 0 3.6 1.6 3.6 3.5 0 2-1.6 3.5-3.6 3.5s-3.6-1.6-3.6-3.5c.1-1.9 1.7-3.5 3.6-3.5zm0-24.4c6.1 0 11 4.9 11 10.9s-4.9 10.9-11 10.9-11-4.9-11-10.9 5-10.9 11-10.9zm0 14.5c2 0 3.6-1.6 3.6-3.5 0-2-1.6-3.5-3.6-3.5s-3.6 1.6-3.6 3.5c.1 1.9 1.7 3.5 3.6 3.5zm-22.4 0c1.2 0 2.2-1 2.2-2.2 0-1.2-1-2.2-2.2-2.2h-5.4V39h5.4zm-5.4-15.9v4.4h4c1.2 0 2.2-1 2.2-2.2 0-1.2-1-2.2-2.2-2.2h-4zm12 7.1c1.7 1.7 2.8 4 2.8 6.6 0 5.1-4.2 9.3-9.4 9.3H429V16h11.1c5.2 0 9.4 4.2 9.4 9.3 0 1.8-.5 3.5-1.4 4.9zm49.6 1.8h-3.6v5.6c0 1.7.5 2.9 2 2.9.9 0 1.6-.2 1.6-.2v5.2s-1.5.9-3.5.9h-.6c-4-.2-6.7-2.7-6.7-7V21l7.1-1.5v5.4h3.6V32z" fill="#104029" fill-rule="evenodd"/><path d="M587.3 16v30.1h-7.1V17.5l7.1-1.5zm-20.4 32.9c2 0 3.6 1.6 3.6 3.5 0 2-1.6 3.5-3.6 3.5s-3.6-1.6-3.6-3.5c.1-1.9 1.7-3.5 3.6-3.5zm0-24.4c6.1 0 11 4.9 11 10.9s-4.9 10.9-11 10.9-11-4.9-11-10.9 5-10.9 11-10.9zm0 14.5c2 0 3.6-1.6 3.6-3.5 0-2-1.6-3.5-3.6-3.5s-3.6 1.6-3.6 3.5c.1 1.9 1.7 3.5 3.6 3.5zm-22.4 0c1.2 0 2.2-1 2.2-2.2 0-1.2-1-2.2-2.2-2.2h-5.4V39h5.4zm-5.4-15.9v4.4h4c1.2 0 2.2-1 2.2-2.2 0-1.2-1-2.2-2.2-2.2h-4zm12 7.1c1.7 1.7 2.8 4 2.8 6.6 0 5.1-4.2 9.3-9.4 9.3H532V16h11.1c5.2 0 9.4 4.2 9.4 9.3 0 1.8-.5 3.5-1.4 4.9zm49.6 1.8h-3.6v5.6c0 1.7.5 2.9 2 2.9.9 0 1.6-.2 1.6-.2v5.2s-1.5.9-3.5.9h-.6c-4-.2-6.7-2.7-6.7-7V21l7.1-1.5v5.4h3.6V32z" fill="#082216" fill-rule="evenodd"/><path d="M690.3 16v30.1h-7.1V17.5l7.1-1.5zm-20.4 32.9c2 0 3.6 1.6 3.6 3.5 0 2-1.6 3.5-3.6 3.5s-3.6-1.6-3.6-3.5c.1-1.9 1.7-3.5 3.6-3.5zm0-24.4c6.1 0 11 4.9 11 10.9s-4.9 10.9-11 10.9-11-4.9-11-10.9 5-10.9 11-10.9zm0 14.5c2 0 3.6-1.6 3.6-3.5 0-2-1.6-3.5-3.6-3.5s-3.6 1.6-3.6 3.5c.1 1.9 1.7 3.5 3.6 3.5zm-22.4 0c1.2 0 2.2-1 2.2-2.2 0-1.2-1-2.2-2.2-2.2h-5.4V39h5.4zm-5.4-15.9v4.4h4c1.2 0 2.2-1 2.2-2.2 0-1.2-1-2.2-2.2-2.2h-4zm12 7.1c1.7 1.7 2.8 4 2.8 6.6 0 5.1-4.2 9.3-9.4 9.3H635V16h11.1c5.2 0 9.4 4.2 9.4 9.3 0 1.8-.5 3.5-1.4 4.9zm49.6 1.8h-3.6v5.6c0 1.7.5 2.9 2 2.9.9 0 1.6-.2 1.6-.2v5.2s-1.5.9-3.5.9h-.6c-4-.2-6.7-2.7-6.7-7V21l7.1-1.5v5.4h3.6V32z" fill="#04110b" fill-rule="evenodd"/><path d="M793.3 16v30.1h-7.1V17.5l7.1-1.5zm-20.4 32.9c2 0 3.6 1.6 3.6 3.5 0 2-1.6 3.5-3.6 3.5s-3.6-1.6-3.6-3.5c.1-1.9 1.7-3.5 3.6-3.5zm0-24.4c6.1 0 11 4.9 11 10.9s-4.9 10.9-11 10.9-11-4.9-11-10.9 5-10.9 11-10.9zm0 14.5c2 0 3.6-1.6 3.6-3.5 0-2-1.6-3.5-3.6-3.5s-3.6 1.6-3.6 3.5c.1 1.9 1.7 3.5 3.6 3.5zm-22.4 0c1.2 0 2.2-1 2.2-2.2 0-1.2-1-2.2-2.2-2.2h-5.4V39h5.4zm-5.4-15.9v4.4h4c1.2 0 2.2-1 2.2-2.2 0-1.2-1-2.2-2.2-2.2h-4zm12 7.1c1.7 1.7 2.8 4 2.8 6.6 0 5.1-4.2 9.3-9.4 9.3H738V16h11.1c5.2 0 9.4 4.2 9.4 9.3 0 1.8-.5 3.5-1.4 4.9zm49.6 1.8h-3.6v5.6c0 1.7.5 2.9 2 2.9.9 0 1.6-.2 1.6-.2v5.2s-1.5.9-3.5.9h-.6c-4-.2-6.7-2.7-6.7-7V21l7.1-1.5v5.4h3.6V32z" fill="#020704" fill-rule="evenodd"/><path d="M896.3 16v30.1h-7.1V17.5l7.1-1.5zm-20.4 32.9c2 0 3.6 1.6 3.6 3.5 0 2-1.6 3.5-3.6 3.5s-3.6-1.6-3.6-3.5c.1-1.9 1.7-3.5 3.6-3.5zm0-24.4c6.1 0 11 4.9 11 10.9s-4.9 10.9-11 10.9-11-4.9-11-10.9 5-10.9 11-10.9zm0 14.5c2 0 3.6-1.6 3.6-3.5 0-2-1.6-3.5-3.6-3.5s-3.6 1.6-3.6 3.5c.1 1.9 1.7 3.5 3.6 3.5zm-22.4 0c1.2 0 2.2-1 2.2-2.2 0-1.2-1-2.2-2.2-2.2h-5.4V39h5.4zm-5.4-15.9v4.4h4c1.2 0 2.2-1 2.2-2.2 0-1.2-1-2.2-2.2-2.2h-4zm12 7.1c1.7 1.7 2.8 4 2.8 6.6 0 5.1-4.2 9.3-9.4 9.3H841V16h11.1c5.2 0 9.4 4.2 9.4 9.3 0 1.8-.5 3.5-1.4 4.9zm49.6 1.8h-3.6v5.6c0 1.7.5 2.9 2 2.9.9 0 1.6-.2 1.6-.2v5.2s-1.5.9-3.5.9h-.6c-4-.2-6.7-2.7-6.7-7V21l7.1-1.5v5.4h3.6V32z" fill="#000101" fill-rule="evenodd"/><path d="M999.3 16v30.1h-7.1V17.5l7.1-1.5zm-20.4 32.9c2 0 3.6 1.6 3.6 3.5 0 2-1.6 3.5-3.6 3.5s-3.6-1.6-3.6-3.5c.1-1.9 1.7-3.5 3.6-3.5zm0-24.4c6.1 0 11 4.9 11 10.9s-4.9 10.9-11 10.9-11-4.9-11-10.9 5-10.9 11-10.9zm0 14.5c2 0 3.6-1.6 3.6-3.5 0-2-1.6-3.5-3.6-3.5s-3.6 1.6-3.6 3.5c.1 1.9 1.7 3.5 3.6 3.5zm-22.4 0c1.2 0 2.2-1 2.2-2.2 0-1.2-1-2.2-2.2-2.2h-5.4V39h5.4zm-5.4-15.9v4.4h4c1.2 0 2.2-1 2.2-2.2 0-1.2-1-2.2-2.2-2.2h-4zm12 7.1c1.7 1.7 2.8 4 2.8 6.6 0 5.1-4.2 9.3-9.4 9.3H944V16h11.1c5.2 0 9.4 4.2 9.4 9.3 0 1.8-.5 3.5-1.4 4.9zm49.6 1.8h-3.6v5.6c0 1.7.5 2.9 2 2.9.9 0 1.6-.2 1.6-.2v5.2s-1.5.9-3.5.9h-.6c-4-.2-6.7-2.7-6.7-7V21l7.1-1.5v5.4h3.6V32z" fill="#000000" fill-rule="evenodd"/><path d="M1102.3 16v30.1h-7.1V17.5l7.1-1.5zm-20.4 32.9c2 0 3.6 1.6 3.6 3.5 0 2-1.6 3.5-3.6 3.5s-3.6-1.6-3.6-3.5c.1-1.9 1.7-3.5 3.6-3.5zm0-24.4c6.1 0 11 4.9 11 10.9s-4.9 10.9-11 10.9-11-4.9-11-10.9 5-10.9 11-10.9zm0 14.5c2 0 3.6-1.6 3.6-3.5 0-2-1.6-3.5-3.6-3.5s-3.6 1.6-3.6 3.5c.1 1.9 1.7 3.5 3.6 3.5zm-22.4 0c1.2 0 2.2-1 2.2-2.2 0-1.2-1-2.2-2.2-2.2h-5.4V39h5.4zm-5.4-15.9v4.4h4c1.2 0 2.2-1 2.2-2.2 0-1.2-1-2.2-2.2-2.2h-4zm12 7.1c1.7 1.7 2.8 4 2.8 6.6 0 5.1-4.2 9.3-9.4 9.3H1047V16h11.1c5.2 0 9.4 4.2 9.4 9.3 0 1.8-.5 3.5-1.4 4.9zm49.6 1.8h-3.6v5.6c0 1.7.5 2.9 2 2.9.9 0 1.6-.2 1.6-.2v5.2s-1.5.9-3.5.9h-.6c-4-.2-6.7-2.7-6.7-7V21l7.1-1.5v5.4h3.6V32z" fill="#020807" fill-rule="evenodd"/><path d="M1205.3 16v30.1h-7.1V17.5l7.1-1.5zm-20.4 32.9c2 0 3.6 1.6 3.6 3.5 0 2-1.6 3.5-3.6 3.5s-3.6-1.6-3.6-3.5c.1-1.9 1.7-3.5 3.6-3.5zm0-24.4c6.1 0 11 4.9 11 10.9s-4.9 10.9-11 10.9-11-4.9-11-10.9 5-10.9 11-10.9zm0 14.5c2 0 3.6-1.6 3.6-3.5 0-2-1.6-3.5-3.6-3.5s-3.6 1.6-3.6 3.5c.1 1.9 1.7 3.5 3.6 3.5zm-22.4 0c1.2 0 2.2-1 2.2-2.2 0-1.2-1-2.2-2.2-2.2h-5.4V39h5.4zm-5.4-15.9v4.4h4c1.2 0 2.2-1 2.2-2.2 0-1.2-1-2.2-2.2-2.2h-4zm12 7.1c1.7 1.7 2.8 4 2.8 6.6 0 5.1-4.2 9.3-9.4 9.3H1150V16h11.1c5.2 0 9.4 4.2 9.4 9.3 0 1.8-.5 3.5-1.4 4.9zm49.6 1.8h-3.6v5.6c0 1.7.5 2.9 2 2.9.9 0 1.6-.2 1.6-.2v5.2s-1.5.9-3.5.9h-.6c-4-.2-6.7-2.7-6.7-7V21l7.1-1.5v5.4h3.6V32z" fill="#092b25" fill-rule="evenodd"/><path d="M1308.3 16v30.1h-7.1V17.5l7.1-1.5zm-20.4 32.9c2 0 3.6 1.6 3.6 3.5 0 2-1.6 3.5-3.6 3.5s-3.6-1.6-3.6-3.5c.1-1.9 1.7-3.5 3.6-3.5zm0-24.4c6.1 0 11 4.9 11 10.9s-4.9 10.9-11 10.9-11-4.9-11-10.9 5-10.9 11-10.9zm0 14.5c2 0 3.6-1.6 3.6-3.5 0-2-1.6-3.5-3.6-3.5s-3.6 1.6-3.6 3.5c.1 1.9 1.7 3.5 3.6 3.5zm-22.4 0c1.2 0 2.2-1 2.2-2.2 0-1.2-1-2.2-2.2-2.2h-5.4V39h5.4zm-5.4-15.9v4.4h4c1.2 0 2.2-1 2.2-2.2 0-1.2-1-2.2-2.2-2.2h-4zm12 7.1c1.7 1.7 2.8 4 2.8 6.6 0 5.1-4.2 9.3-9.4 9.3H1253V16h11.1c5.2 0 9.4 4.2 9.4 9.3 0 1.8-.5 3.5-1.4 4.9zm49.6 1.8h-3.6v5.6c0 1.7.5 2.9 2 2.9.9 0 1.6-.2 1.6-.2v5.2s-1.5.9-3.5.9h-.6c-4-.2-6.7-2.7-6.7-7V21l7.1-1.5v5.4h3.6V32z" fill="#186f60" fill-rule="evenodd"/><path d="M1411.3 16v30.1h-7.1V17.5l7.1-1.5zm-20.4 32.9c2 0 3.6 1.6 3.6 3.5 0 2-1.6 3.5-3.6 3.5s-3.6-1.6-3.6-3.5c.1-1.9 1.7-3.5 3.6-3.5zm0-24.4c6.1 0 11 4.9 11 10.9s-4.9 10.9-11 10.9-11-4.9-11-10.9 5-10.9 11-10.9zm0 14.5c2 0 3.6-1.6 3.6-3.5 0-2-1.6-3.5-3.6-3.5s-3.6 1.6-3.6 3.5c.1 1.9 1.7 3.5 3.6 3.5zm-22.4 0c1.2 0 2.2-1 2.2-2.2 0-1.2-1-2.2-2.2-2.2h-5.4V39h5.4zm-5.4-15.9v4.4h4c1.2 0 2.2-1 2.2-2.2 0-1.2-1-2.2-2.2-2.2h-4zm12 7.1c1.7 1.7 2.8 4 2.8 6.6 0 5.1-4.2 9.3-9.4 9.3H1356V16h11.1c5.2 0 9.4 4.2 9.4 9.3 0 1.8-.5 3.5-1.4 4.9zm49.6 1.8h-3.6v5.6c0 1.7.5 2.9 2 2.9.9 0 1.6-.2 1.6-.2v5.2s-1.5.9-3.5.9h-.6c-4-.2-6.7-2.7-6.7-7V21l7.1-1.5v5.4h3.6V32z" fill="#24a993" fill-rule="evenodd"/><path d="M1514.3 16v30.1h-7.1V17.5l7.1-1.5zm-20.4 32.9c2 0 3.6 1.6 3.6 3.5 0 2-1.6 3.5-3.6 3.5s-3.6-1.6-3.6-3.5c.1-1.9 1.7-3.5 3.6-3.5zm0-24.4c6.1 0 11 4.9 11 10.9s-4.9 10.9-11 10.9-11-4.9-11-10.9 5-10.9 11-10.9zm0 14.5c2 0 3.6-1.6 3.6-3.5 0-2-1.6-3.5-3.6-3.5s-3.6 1.6-3.6 3.5c.1 1.9 1.7 3.5 3.6 3.5zm-22.4 0c1.2 0 2.2-1 2.2-2.2 0-1.2-1-2.2-2.2-2.2h-5.4V39h5.4zm-5.4-15.9v4.4h4c1.2 0 2.2-1 2.2-2.2 0-1.2-1-2.2-2.2-2.2h-4zm12 7.1c1.7 1.7 2.8 4 2.8 6.6 0 5.1-4.2 9.3-9.4 9.3H1459V16h11.1c5.2 0 9.4 4.2 9.4 9.3 0 1.8-.5 3.5-1.4 4.9zm49.6 1.8h-3.6v5.6c0 1.7.5 2.9 2 2.9.9 0 1.6-.2 1.6-.2v5.2s-1.5.9-3.5.9h-.6c-4-.2-6.7-2.7-6.7-7V21l7.1-1.5v5.4h3.6V32z" fill="#2ccbb1" fill-rule="evenodd"/><path d="M1617.3 16v30.1h-7.1V17.5l7.1-1.5zm-20.4 32.9c2 0 3.6 1.6 3.6 3.5 0 2-1.6 3.5-3.6 3.5s-3.6-1.6-3.6-3.5c.1-1.9 1.7-3.5 3.6-3.5zm0-24.4c6.1 0 11 4.9 11 10.9s-4.9 10.9-11 10.9-11-4.9-11-10.9 5-10.9 11-10.9zm0 14.5c2 0 3.6-1.6 3.6-3.5 0-2-1.6-3.5-3.6-3.5s-3.6 1.6-3.6 3.5c.1 1.9 1.7 3.5 3.6 3.5zm-22.4 0c1.2 0 2.2-1 2.2-2.2 0-1.2-1-2.2-2.2-2.2h-5.4V39h5.4zm-5.4-15.9v4.4h4c1.2 0 2.2-1 2.2-2.2 0-1.2-1-2.2-2.2-2.2h-4zm12 7.1c1.7 1.7 2.8 4 2.8 6.6 0 5.1-4.2 9.3-9.4 9.3H1562V16h11.1c5.2 0 9.4 4.2 9.4 9.3 0 1.8-.5 3.5-1.4 4.9zm49.6 1.8h-3.6v5.6c0 1.7.5 2.9 2 2.9.9 0 1.6-.2 1.6-.2v5.2s-1.5.9-3.5.9h-.6c-4-.2-6.7-2.7-6.7-7V21l7.1-1.5v5.4h3.6V32z" fill="#30e0c2" fill-rule="evenodd"/><path d="M1720.3 16v30.1h-7.1V17.5l7.1-1.5zm-20.4 32.9c2 0 3.6 1.6 3.6 3.5 0 2-1.6 3.5-3.6 3.5s-3.6-1.6-3.6-3.5c.1-1.9 1.7-3.5 3.6-3.5zm0-24.4c6.1 0 11 4.9 11 10.9s-4.9 10.9-11 10.9-11-4.9-11-10.9 5-10.9 11-10.9zm0 14.5c2 0 3.6-1.6 3.6-3.5 0-2-1.6-3.5-3.6-3.5s-3.6 1.6-3.6 3.5c.1 1.9 1.7 3.5 3.6 3.5zm-22.4 0c1.2 0 2.2-1 2.2-2.2 0-1.2-1-2.2-2.2-2.2h-5.4V39h5.4zm-5.4-15.9v4.4h4c1.2 0 2.2-1 2.2-2.2 0-1.2-1-2.2-2.2-2.2h-4zm12 7.1c1.7 1.7 2.8 4 2.8 6.6 0 5.1-4.2 9.3-9.4 9.3H1665V16h11.1c5.2 0 9.4 4.2 9.4 9.3 0 1.8-.5 3.5-1.4 4.9zm49.6 1.8h-3.6v5.6c0 1.7.5 2.9 2 2.9.9 0 1.6-.2 1.6-.2v5.2s-1.5.9-3.5.9h-.6c-4-.2-6.7-2.7-6.7-7V21l7.1-1.5v5.4h3.6V32z" fill="#32ebcc" fill-rule="evenodd"/><path d="M1823.3 16v30.1h-7.1V17.5l7.1-1.5zm-20.4 32.9c2 0 3.6 1.6 3.6 3.5 0 2-1.6 3.5-3.6 3.5s-3.6-1.6-3.6-3.5c.1-1.9 1.7-3.5 3.6-3.5zm0-24.4c6.1 0 11 4.9 11 10.9s-4.9 10.9-11 10.9-11-4.9-11-10.9 5-10.9 11-10.9zm0 14.5c2 0 3.6-1.6 3.6-3.5 0-2-1.6-3.5-3.6-3.5s-3.6 1.6-3.6 3.5c.1 1.9 1.7 3.5 3.6 3.5zm-22.4 0c1.2 0 2.2-1 2.2-2.2 0-1.2-1-2.2-2.2-2.2h-5.4V39h5.4zm-5.4-15.9v4.4h4c1.2 0 2.2-1 2.2-2.2 0-1.2-1-2.2-2.2-2.2h-4zm12 7.1c1.7 1.7 2.8 4 2.8 6.6 0 5.1-4.2 9.3-9.4 9.3H1768V16h11.1c5.2 0 9.4 4.2 9.4 9.3 0 1.8-.5 3.5-1.4 4.9zm49.6 1.8h-3.6v5.6c0 1.7.5 2.9 2 2.9.9 0 1.6-.2 1.6-.2v5.2s-1.5.9-3.5.9h-.6c-4-.2-6.7-2.7-6.7-7V21l7.1-1.5v5.4h3.6V32z" fill="#34f1d2" fill-rule="evenodd"/><path d="M1926.3 16v30.1h-7.1V17.5l7.1-1.5zm-20.4 32.9c2 0 3.6 1.6 3.6 3.5 0 2-1.6 3.5-3.6 3.5s-3.6-1.6-3.6-3.5c.1-1.9 1.7-3.5 3.6-3.5zm0-24.4c6.1 0 11 4.9 11 10.9s-4.9 10.9-11 10.9-11-4.9-11-10.9 5-10.9 11-10.9zm0 14.5c2 0 3.6-1.6 3.6-3.5 0-2-1.6-3.5-3.6-3.5s-3.6 1.6-3.6 3.5c.1 1.9 1.7 3.5 3.6 3.5zm-22.4 0c1.2 0 2.2-1 2.2-2.2 0-1.2-1-2.2-2.2-2.2h-5.4V39h5.4zm-5.4-15.9v4.4h4c1.2 0 2.2-1 2.2-2.2 0-1.2-1-2.2-2.2-2.2h-4zm12 7.1c1.7 1.7 2.8 4 2.8 6.6 0 5.1-4.2 9.3-9.4 9.3H1871V16h11.1c5.2 0 9.4 4.2 9.4 9.3 0 1.8-.5 3.5-1.4 4.9zm49.6 1.8h-3.6v5.6c0 1.7.5 2.9 2 2.9.9 0 1.6-.2 1.6-.2v5.2s-1.5.9-3.5.9h-.6c-4-.2-6.7-2.7-6.7-7V21l7.1-1.5v5.4h3.6V32z" fill="#34f3d3" fill-rule="evenodd"/><path d="M2029.3 16v30.1h-7.1V17.5l7.1-1.5zm-20.4 32.9c2 0 3.6 1.6 3.6 3.5 0 2-1.6 3.5-3.6 3.5s-3.6-1.6-3.6-3.5c.1-1.9 1.7-3.5 3.6-3.5zm0-24.4c6.1 0 11 4.9 11 10.9s-4.9 10.9-11 10.9-11-4.9-11-10.9 5-10.9 11-10.9zm0 14.5c2 0 3.6-1.6 3.6-3.5 0-2-1.6-3.5-3.6-3.5s-3.6 1.6-3.6 3.5c.1 1.9 1.7 3.5 3.6 3.5zm-22.4 0c1.2 0 2.2-1 2.2-2.2 0-1.2-1-2.2-2.2-2.2h-5.4V39h5.4zm-5.4-15.9v4.4h4c1.2 0 2.2-1 2.2-2.2 0-1.2-1-2.2-2.2-2.2h-4zm12 7.1c1.7 1.7 2.8 4 2.8 6.6 0 5.1-4.2 9.3-9.4 9.3H1974V16h11.1c5.2 0 9.4 4.2 9.4 9.3 0 1.8-.5 3.5-1.4 4.9zm49.6 1.8h-3.6v5.6c0 1.7.5 2.9 2 2.9.9 0 1.6-.2 1.6-.2v5.2s-1.5.9-3.5.9h-.6c-4-.2-6.7-2.7-6.7-7V21l7.1-1.5v5.4h3.6V32z" fill="#3bedcc" fill-rule="evenodd"/><path d="M2132.3 16v30.1h-7.1V17.5l7.1-1.5zm-20.4 32.9c2 0 3.6 1.6 3.6 3.5 0 2-1.6 3.5-3.6 3.5s-3.6-1.6-3.6-3.5c.1-1.9 1.7-3.5 3.6-3.5zm0-24.4c6.1 0 11 4.9 11 10.9s-4.9 10.9-11 10.9-11-4.9-11-10.9 5-10.9 11-10.9zm0 14.5c2 0 3.6-1.6 3.6-3.5 0-2-1.6-3.5-3.6-3.5s-3.6 1.6-3.6 3.5c.1 1.9 1.7 3.5 3.6 3.5zm-22.4 0c1.2 0 2.2-1 2.2-2.2 0-1.2-1-2.2-2.2-2.2h-5.4V39h5.4zm-5.4-15.9v4.4h4c1.2 0 2.2-1 2.2-2.2 0-1.2-1-2.2-2.2-2.2h-4zm12 7.1c1.7 1.7 2.8 4 2.8 6.6 0 5.1-4.2 9.3-9.4 9.3H2077V16h11.1c5.2 0 9.4 4.2 9.4 9.3 0 1.8-.5 3.5-1.4 4.9zm49.6 1.8h-3.6v5.6c0 1.7.5 2.9 2 2.9.9 0 1.6-.2 1.6-.2v5.2s-1.5.9-3.5.9h-.6c-4-.2-6.7-2.7-6.7-7V21l7.1-1.5v5.4h3.6V32z" fill="#57d2af" fill-rule="evenodd"/><path d="M2235.3 16v30.1h-7.1V17.5l7.1-1.5zm-20.4 32.9c2 0 3.6 1.6 3.6 3.5 0 2-1.6 3.5-3.6 3.5s-3.6-1.6-3.6-3.5c.1-1.9 1.7-3.5 3.6-3.5zm0-24.4c6.1 0 11 4.9 11 10.9s-4.9 10.9-11 10.9-11-4.9-11-10.9 5-10.9 11-10.9zm0 14.5c2 0 3.6-1.6 3.6-3.5 0-2-1.6-3.5-3.6-3.5s-3.6 1.6-3.6 3.5c.1 1.9 1.7 3.5 3.6 3.5zm-22.4 0c1.2 0 2.2-1 2.2-2.2 0-1.2-1-2.2-2.2-2.2h-5.4V39h5.4zm-5.4-15.9v4.4h4c1.2 0 2.2-1 2.2-2.2 0-1.2-1-2.2-2.2-2.2h-4zm12 7.1c1.7 1.7 2.8 4 2.8 6.6 0 5.1-4.2 9.3-9.4 9.3H2180V16h11.1c5.2 0 9.4 4.2 9.4 9.3 0 1.8-.5 3.5-1.4 4.9zm49.6 1.8h-3.6v5.6c0 1.7.5 2.9 2 2.9.9 0 1.6-.2 1.6-.2v5.2s-1.5.9-3.5.9h-.6c-4-.2-6.7-2.7-6.7-7V21l7.1-1.5v5.4h3.6V32z" fill="#8f9c74" fill-rule="evenodd"/><path d="M2338.3 16v30.1h-7.1V17.5l7.1-1.5zm-20.4 32.9c2 0 3.6 1.6 3.6 3.5 0 2-1.6 3.5-3.6 3.5s-3.6-1.6-3.6-3.5c.1-1.9 1.7-3.5 3.6-3.5zm0-24.4c6.1 0 11 4.9 11 10.9s-4.9 10.9-11 10.9-11-4.9-11-10.9 5-10.9 11-10.9zm0 14.5c2 0 3.6-1.6 3.6-3.5 0-2-1.6-3.5-3.6-3.5s-3.6 1.6-3.6 3.5c.1 1.9 1.7 3.5 3.6 3.5zm-22.4 0c1.2 0 2.2-1 2.2-2.2 0-1.2-1-2.2-2.2-2.2h-5.4V39h5.4zm-5.4-15.9v4.4h4c1.2 0 2.2-1 2.2-2.2 0-1.2-1-2.2-2.2-2.2h-4zm12 7.1c1.7 1.7 2.8 4 2.8 6.6 0 5.1-4.2 9.3-9.4 9.3H2283V16h11.1c5.2 0 9.4 4.2 9.4 9.3 0 1.8-.5 3.5-1.4 4.9zm49.6 1.8h-3.6v5.6c0 1.7.5 2.9 2 2.9.9 0 1.6-.2 1.6-.2v5.2s-1.5.9-3.5.9h-.6c-4-.2-6.7-2.7-6.7-7V21l7.1-1.5v5.4h3.6V32z" fill="#bf6f42" fill-rule="evenodd"/><path d="M2441.3 16v30.1h-7.1V17.5l7.1-1.5zm-20.4 32.9c2 0 3.6 1.6 3.6 3.5 0 2-1.6 3.5-3.6 3.5s-3.6-1.6-3.6-3.5c.1-1.9 1.7-3.5 3.6-3.5zm0-24.4c6.1 0 11 4.9 11 10.9s-4.9 10.9-11 10.9-11-4.9-11-10.9 5-10.9 11-10.9zm0 14.5c2 0 3.6-1.6 3.6-3.5 0-2-1.6-3.5-3.6-3.5s-3.6 1.6-3.6 3.5c.1 1.9 1.7 3.5 3.6 3.5zm-22.4 0c1.2 0 2.2-1 2.2-2.2 0-1.2-1-2.2-2.2-2.2h-5.4V39h5.4zm-5.4-15.9v4.4h4c1.2 0 2.2-1 2.2-2.2 0-1.2-1-2.2-2.2-2.2h-4zm12 7.1c1.7 1.7 2.8 4 2.8 6.6 0 5.1-4.2 9.3-9.4 9.3H2386V16h11.1c5.2 0 9.4 4.2 9.4 9.3 0 1.8-.5 3.5-1.4 4.9zm49.6 1.8h-3.6v5.6c0 1.7.5 2.9 2 2.9.9 0 1.6-.2 1.6-.2v5.2s-1.5.9-3.5.9h-.6c-4-.2-6.7-2.7-6.7-7V21l7.1-1.5v5.4h3.6V32z" fill="#db5425" fill-rule="evenodd"/><path d="M2544.3 16v30.1h-7.1V17.5l7.1-1.5zm-20.4 32.9c2 0 3.6 1.6 3.6 3.5 0 2-1.6 3.5-3.6 3.5s-3.6-1.6-3.6-3.5c.1-1.9 1.7-3.5 3.6-3.5zm0-24.4c6.1 0 11 4.9 11 10.9s-4.9 10.9-11 10.9-11-4.9-11-10.9 5-10.9 11-10.9zm0 14.5c2 0 3.6-1.6 3.6-3.5 0-2-1.6-3.5-3.6-3.5s-3.6 1.6-3.6 3.5c.1 1.9 1.7 3.5 3.6 3.5zm-22.4 0c1.2 0 2.2-1 2.2-2.2 0-1.2-1-2.2-2.2-2.2h-5.4V39h5.4zm-5.4-15.9v4.4h4c1.2 0 2.2-1 2.2-2.2 0-1.2-1-2.2-2.2-2.2h-4zm12 7.1c1.7 1.7 2.8 4 2.8 6.6 0 5.1-4.2 9.3-9.4 9.3H2489V16h11.1c5.2 0 9.4 4.2 9.4 9.3 0 1.8-.5 3.5-1.4 4.9zm49.6 1.8h-3.6v5.6c0 1.7.5 2.9 2 2.9.9 0 1.6-.2 1.6-.2v5.2s-1.5.9-3.5.9h-.6c-4-.2-6.7-2.7-6.7-7V21l7.1-1.5v5.4h3.6V32z" fill="#ec4413" fill-rule="evenodd"/><path d="M2647.3 16v30.1h-7.1V17.5l7.1-1.5zm-20.4 32.9c2 0 3.6 1.6 3.6 3.5 0 2-1.6 3.5-3.6 3.5s-3.6-1.6-3.6-3.5c.1-1.9 1.7-3.5 3.6-3.5zm0-24.4c6.1 0 11 4.9 11 10.9s-4.9 10.9-11 10.9-11-4.9-11-10.9 5-10.9 11-10.9zm0 14.5c2 0 3.6-1.6 3.6-3.5 0-2-1.6-3.5-3.6-3.5s-3.6 1.6-3.6 3.5c.1 1.9 1.7 3.5 3.6 3.5zm-22.4 0c1.2 0 2.2-1 2.2-2.2 0-1.2-1-2.2-2.2-2.2h-5.4V39h5.4zm-5.4-15.9v4.4h4c1.2 0 2.2-1 2.2-2.2 0-1.2-1-2.2-2.2-2.2h-4zm12 7.1c1.7 1.7 2.8 4 2.8 6.6 0 5.1-4.2 9.3-9.4 9.3H2592V16h11.1c5.2 0 9.4 4.2 9.4 9.3 0 1.8-.5 3.5-1.4 4.9zm49.6 1.8h-3.6v5.6c0 1.7.5 2.9 2 2.9.9 0 1.6-.2 1.6-.2v5.2s-1.5.9-3.5.9h-.6c-4-.2-6.7-2.7-6.7-7V21l7.1-1.5v5.4h3.6V32z" fill="#f63b09" fill-rule="evenodd"/><path d="M2750.3 16v30.1h-7.1V17.5l7.1-1.5zm-20.4 32.9c2 0 3.6 1.6 3.6 3.5 0 2-1.6 3.5-3.6 3.5s-3.6-1.6-3.6-3.5c.1-1.9 1.7-3.5 3.6-3.5zm0-24.4c6.1 0 11 4.9 11 10.9s-4.9 10.9-11 10.9-11-4.9-11-10.9 5-10.9 11-10.9zm0 14.5c2 0 3.6-1.6 3.6-3.5 0-2-1.6-3.5-3.6-3.5s-3.6 1.6-3.6 3.5c.1 1.9 1.7 3.5 3.6 3.5zm-22.4 0c1.2 0 2.2-1 2.2-2.2 0-1.2-1-2.2-2.2-2.2h-5.4V39h5.4zm-5.4-15.9v4.4h4c1.2 0 2.2-1 2.2-2.2 0-1.2-1-2.2-2.2-2.2h-4zm12 7.1c1.7 1.7 2.8 4 2.8 6.6 0 5.1-4.2 9.3-9.4 9.3H2695V16h11.1c5.2 0 9.4 4.2 9.4 9.3 0 1.8-.5 3.5-1.4 4.9zm49.6 1.8h-3.6v5.6c0 1.7.5 2.9 2 2.9.9 0 1.6-.2 1.6-.2v5.2s-1.5.9-3.5.9h-.6c-4-.2-6.7-2.7-6.7-7V21l7.1-1.5v5.4h3.6V32z" fill="#fb3604" fill-rule="evenodd"/><path d="M2853.3 16v30.1h-7.1V17.5l7.1-1.5zm-20.4 32.9c2 0 3.6 1.6 3.6 3.5 0 2-1.6 3.5-3.6 3.5s-3.6-1.6-3.6-3.5c.1-1.9 1.7-3.5 3.6-3.5zm0-24.4c6.1 0 11 4.9 11 10.9s-4.9 10.9-11 10.9-11-4.9-11-10.9 5-10.9 11-10.9zm0 14.5c2 0 3.6-1.6 3.6-3.5 0-2-1.6-3.5-3.6-3.5s-3.6 1.6-3.6 3.5c.1 1.9 1.7 3.5 3.6 3.5zm-22.4 0c1.2 0 2.2-1 2.2-2.2 0-1.2-1-2.2-2.2-2.2h-5.4V39h5.4zm-5.4-15.9v4.4h4c1.2 0 2.2-1 2.2-2.2 0-1.2-1-2.2-2.2-2.2h-4zm12 7.1c1.7 1.7 2.8 4 2.8 6.6 0 5.1-4.2 9.3-9.4 9.3H2798V16h11.1c5.2 0 9.4 4.2 9.4 9.3 0 1.8-.5 3.5-1.4 4.9zm49.6 1.8h-3.6v5.6c0 1.7.5 2.9 2 2.9.9 0 1.6-.2 1.6-.2v5.2s-1.5.9-3.5.9h-.6c-4-.2-6.7-2.7-6.7-7V21l7.1-1.5v5.4h3.6V32z" fill="#fc3503" fill-rule="evenodd"/></svg>